<?xml version="1.0" encoding="UTF-8" standalone="no"?>
<svg
   xmlns:dc="http://purl.org/dc/elements/1.1/"
   xmlns:cc="http://creativecommons.org/ns#"
   xmlns:rdf="http://www.w3.org/1999/02/22-rdf-syntax-ns#"
   xmlns:svg="http://www.w3.org/2000/svg"
   xmlns="http://www.w3.org/2000/svg"
   xmlns:sodipodi="http://sodipodi.sourceforge.net/DTD/sodipodi-0.dtd"
   xmlns:inkscape="http://www.inkscape.org/namespaces/inkscape"
   width="297mm"
   height="210mm"
   version="1.1"
   viewBox="0 0 1052.3622 744.09448"
   id="svg2"
   inkscape:version="0.91 r13725"
   sodipodi:docname="browser.svg">
  <metadata
     id="metadata72">
    <rdf:RDF>
      <cc:Work
         rdf:about="">
        <dc:format>image/svg+xml</dc:format>
        <dc:type
           rdf:resource="http://purl.org/dc/dcmitype/StillImage" />
        <dc:title></dc:title>
      </cc:Work>
    </rdf:RDF>
  </metadata>
  <sodipodi:namedview
     pagecolor="#ffffff"
     bordercolor="#666666"
     borderopacity="1"
     objecttolerance="10"
     gridtolerance="10"
     guidetolerance="10"
     inkscape:pageopacity="0"
     inkscape:pageshadow="2"
     inkscape:window-width="1920"
     inkscape:window-height="1113"
     id="namedview70"
     showgrid="true"
     inkscape:zoom="1.2324654"
     inkscape:cx="526.1811"
     inkscape:cy="372.04724"
     inkscape:window-x="0"
     inkscape:window-y="24"
     inkscape:window-maximized="1"
     inkscape:current-layer="svg2">
    <inkscape:grid
       type="xygrid"
       id="grid5083" />
  </sodipodi:namedview>
  <defs
     id="defs4">
    <filter
       id="b"
       color-interpolation-filters="sRGB">
      <feGaussianBlur
         result="result1"
         stdDeviation="1"
         id="feGaussianBlur7" />
      <feComposite
         in="result1"
         in2="result1"
         operator="in"
         result="result4"
         id="feComposite9" />
      <feBlend
         in="result1"
         in2="result4"
         mode="screen"
         result="result5"
         id="feBlend11" />
      <feGaussianBlur
         in="result5"
         result="result6"
         stdDeviation="8"
         id="feGaussianBlur13" />
      <feComposite
         in="result6"
         in2="result5"
         operator="atop"
         result="result8"
         id="feComposite15" />
      <feComposite
         in="result6"
         in2="result8"
         operator="in"
         result="fbSourceGraphic"
         id="feComposite17" />
      <feGaussianBlur
         in="fbSourceGraphic"
         result="result0"
         stdDeviation="2.5"
         id="feGaussianBlur19" />
      <feSpecularLighting
         lighting-color="rgb(255,255,255)"
         in="result0"
         result="result1"
         specularConstant="1.5"
         specularExponent="45"
         id="feSpecularLighting21">
        <fePointLight
           x="-6000"
           y="-9000"
           z="21000"
           id="fePointLight23" />
      </feSpecularLighting>
      <feComposite
         in="result1"
         in2="fbSourceGraphic"
         operator="in"
         result="result2"
         id="feComposite25" />
      <feComposite
         in="fbSourceGraphic"
         in2="result2"
         k2="1"
         k3="1"
         operator="arithmetic"
         result="result4"
         id="feComposite27" />
      <feComposite
         in="result9"
         in2="result4"
         operator="in"
         result="result91"
         id="feComposite29" />
      <feBlend
         in2="result91"
         mode="multiply"
         id="feBlend31" />
    </filter>
    <filter
       id="a"
       color-interpolation-filters="sRGB">
      <feGaussianBlur
         result="result1"
         stdDeviation="1"
         id="feGaussianBlur34" />
      <feComposite
         in="result1"
         in2="result1"
         operator="in"
         result="result4"
         id="feComposite36" />
      <feBlend
         in="result1"
         in2="result4"
         mode="screen"
         result="result5"
         id="feBlend38" />
      <feGaussianBlur
         in="result5"
         result="result6"
         stdDeviation="8"
         id="feGaussianBlur40" />
      <feComposite
         in="result6"
         in2="result5"
         operator="atop"
         result="result8"
         id="feComposite42" />
      <feComposite
         in="result6"
         in2="result8"
         operator="in"
         result="fbSourceGraphic"
         id="feComposite44" />
      <feGaussianBlur
         in="fbSourceGraphic"
         result="result0"
         stdDeviation="2.5"
         id="feGaussianBlur46" />
      <feSpecularLighting
         lighting-color="rgb(255,255,255)"
         in="result0"
         result="result1"
         specularConstant="1.5"
         specularExponent="45"
         id="feSpecularLighting48">
        <fePointLight
           x="-6000"
           y="-9000"
           z="21000"
           id="fePointLight50" />
      </feSpecularLighting>
      <feComposite
         in="result1"
         in2="fbSourceGraphic"
         operator="in"
         result="result2"
         id="feComposite52" />
      <feComposite
         in="fbSourceGraphic"
         in2="result2"
         k2="1"
         k3="1"
         operator="arithmetic"
         result="result4"
         id="feComposite54" />
      <feComposite
         in="result9"
         in2="result4"
         operator="in"
         result="result91"
         id="feComposite56" />
      <feBlend
         in2="result91"
         mode="multiply"
         id="feBlend58" />
    </filter>
  </defs>
  <g
     transform="translate(0 -308.27)"
     id="g60">
    <path
       d="m634.38 910.44a45.962 28.789 0 0 1 -45 28.78 45.962 28.789 0 0 1 -46.89 -27.57"
       id="path62"
       fill-opacity="0" />
    <g
       transform="translate(-78.792 47.477)"
       id="g64"
       fill="#0000cd">
      <ellipse
         transform="matrix(.99998 .0063245 -.029184 .99957 0 0)"
         cx="597.81"
         cy="840.85"
         rx="80.301"
         ry="17.185"
         id="ellipse66"
         filter="url(#a)"
         fill="#000" />
      <path
         transform="matrix(1.0025 0 0 .96796 -1.4683 310.03)"
         d="m280.68 73.131c-5.0832 0-9.1758 4.0925-9.1758 9.1758v374.03c0 5.0833 4.0925 9.1758 9.1758 9.1758h596.27c5.0833 0 9.1758-4.0925 9.1758-9.1758v-374.03c0-5.0833-4.0925-9.1758-9.1758-9.1758h-596.27zm286.32 401.94c-2.5864 0-4.668 2.0835-4.668 4.6699v56.965c0 2.5864 2.0816 4.668 4.668 4.668h16.559c2.5864 0 4.6699-2.0816 4.6699-4.668v-56.965c0-2.5864-2.0835-4.6699-4.6699-4.6699h-16.559z"
         id="path68"
         filter="url(#b)"
         stroke-linejoin="round"
         stroke-linecap="round"
         stroke-width="26.534"
         stroke="#000"
         fill-opacity="0" />
    </g>
  </g>
  <path
     inkscape:connector-curvature="0"
     d="m 614.96692,412.73055 c 24.28136,-27.36461 39.07246,-63.33777 39.07246,-102.7148 0,-40.96943 -16.00945,-78.24642 -42.06488,-105.98509 0,0 0,-0.005 0,-0.005 -0.0214,-0.0321 -0.0534,-0.0427 -0.0695,-0.0694 -27.14019,-28.85005 -65.16529,-47.31755 -107.45993,-48.76567 l -0.005,-0.005 -3.01914,-0.0802 c -0.78016,-0.0267 -1.56033,-0.0534 -2.34584,-0.0534 -0.78551,0 -1.56568,0.0268 -2.34584,0.0534 l -3.00845,0.0802 -0.005,0.005 c -42.29464,1.44812 -80.31975,19.91562 -107.45992,48.76576 -0.0214,0.0267 -0.0534,0.0374 -0.0695,0.0694 0,0 0,0.005 -0.005,0.0107 -26.06077,27.73332 -42.07021,65.01031 -42.07021,105.97974 0,39.37703 14.7911,75.35019 39.07244,102.7148 0.0321,0.0481 0.0321,0.10152 0.0695,0.14962 0.0962,0.13359 0.23512,0.19771 0.33665,0.32062 27.28445,30.5013 66.43171,50.14974 110.12104,51.64595 l 0.005,0.005 3.00845,0.0802 c 0.7855,0.0214 1.56567,0.0481 2.35118,0.0481 0.78551,0 1.56568,-0.0267 2.34584,-0.0534 l 3.00845,-0.0802 0.005,-0.005 c 43.73742,-1.50155 82.92743,-21.1874 110.21188,-51.75283 0.0695,-0.0908 0.18168,-0.11756 0.2458,-0.21374 0.0427,-0.0427 0.0427,-0.0962 0.0748,-0.14428 z m -260.03591,-97.37119 64.13931,0 c 0.60382,22.65155 5.02833,44.66186 12.90481,65.28283 -15.19722,5.49857 -29.72648,12.87275 -43.34199,22.07444 -20.0225,-23.81645 -32.48378,-54.17347 -33.70213,-87.35727 z m 36.61974,-101.40562 c 13.29489,8.64595 27.4501,15.57126 42.21449,20.74388 -9.04139,21.94619 -14.043,45.60768 -14.69492,69.97452 l -64.13931,0 c 1.27712,-34.77084 14.89263,-66.43171 36.61974,-90.7184 z m 251.66782,90.7184 -64.13931,0 c -0.65192,-24.36684 -5.65353,-48.02833 -14.69491,-69.97452 14.76439,-5.17262 28.9196,-12.09793 42.21449,-20.74388 21.7271,24.28669 35.34261,55.94756 36.61973,90.7184 z M 493.73119,235.00755 c -15.44836,-0.43818 -30.61353,-2.74128 -45.26569,-6.85585 10.83149,-22.21872 26.12489,-42.27327 45.26569,-58.97203 l 0,65.82788 z m 0,10.68721 0,58.97738 -63.97366,0 c 0.65727,-23.234 5.53063,-45.76798 14.24606,-66.66149 16.06288,4.65429 32.74027,7.2299 49.7276,7.68411 z m 10.68721,0 c 16.98732,-0.45421 33.66472,-3.02448 49.73294,-7.68411 8.71543,20.89351 13.58879,43.42749 14.24606,66.66149 l -63.979,0 0,-58.97738 z m 0,-10.68721 0,-65.82788 c 19.1408,16.69876 34.4342,36.75331 45.26569,58.97203 -14.65217,4.11457 -29.81733,6.41767 -45.26569,6.85585 z m 55.62159,-10.10476 c -10.26506,-21.50801 -24.51112,-41.10302 -42.15036,-57.89798 31.29216,4.09321 59.44762,18.24308 81.13197,39.10452 -12.31166,7.81235 -25.37144,14.09643 -38.98161,18.79346 z m -121.9304,0 c -13.61017,-4.69703 -26.66994,-10.98111 -38.97627,-18.79346 21.67901,-20.86144 49.83982,-35.01131 81.13198,-39.10452 -17.64459,16.79496 -31.89064,36.38997 -42.15571,57.89798 z m -8.35206,90.45657 63.97366,0 0,53.63911 c -17.67131,0.47024 -34.98459,3.22754 -51.62458,8.23451 -7.51846,-19.53089 -11.74525,-40.39767 -12.34908,-61.87362 z m 63.97366,64.32633 0,71.16614 c -20.48739,-17.87436 -36.55027,-39.59078 -47.4726,-63.67975 15.32012,-4.51534 31.23338,-7.02684 47.4726,-7.48639 z m 10.68721,71.16614 0,-71.16614 c 16.23922,0.4542 32.15248,2.97105 47.47259,7.48104 -10.92233,24.09432 -26.9852,45.81074 -47.47259,63.6851 z m 0,-81.85336 0,-53.63911 63.97365,0 c -0.60382,21.47595 -4.83062,42.34273 -12.35442,61.87896 -16.63464,-5.01231 -33.94792,-7.76961 -51.61923,-8.23985 z m 74.66086,-53.63911 64.13931,0 c -1.21834,33.1838 -13.67429,63.54082 -33.70213,87.35727 -13.6155,-9.20169 -28.14477,-16.57587 -43.34198,-22.07444 7.88182,-20.62097 12.30097,-42.63128 12.9048,-65.28283 z M 395.8951,410.72135 c 12.64298,-8.40014 26.10352,-15.15447 40.16789,-20.20417 10.39331,23.29812 25.31267,44.52827 44.19696,62.50951 -32.86852,-4.30161 -62.28507,-19.6912 -84.36485,-42.30534 z m 121.99453,42.30534 c 18.8843,-17.9759 33.80366,-39.20604 44.19697,-62.50951 14.06437,5.0497 27.51957,11.80403 40.16788,20.20417 -22.07978,22.61414 -51.49632,38.00373 -84.36485,42.30534 z"
     id="path4445" />
  <g
     id="g4447"
     transform="matrix(5.3436063,0,0,5.3436063,344.11021,155.05117)" />
  <g
     id="g4449"
     transform="matrix(5.3436063,0,0,5.3436063,344.11021,155.05117)" />
  <g
     id="g4451"
     transform="matrix(5.3436063,0,0,5.3436063,344.11021,155.05117)" />
  <g
     id="g4453"
     transform="matrix(5.3436063,0,0,5.3436063,344.11021,155.05117)" />
  <g
     id="g4455"
     transform="matrix(5.3436063,0,0,5.3436063,344.11021,155.05117)" />
  <g
     id="g4457"
     transform="matrix(5.3436063,0,0,5.3436063,344.11021,155.05117)" />
  <g
     id="g4459"
     transform="matrix(5.3436063,0,0,5.3436063,344.11021,155.05117)" />
  <g
     id="g4461"
     transform="matrix(5.3436063,0,0,5.3436063,344.11021,155.05117)" />
  <g
     id="g4463"
     transform="matrix(5.3436063,0,0,5.3436063,344.11021,155.05117)" />
  <g
     id="g4465"
     transform="matrix(5.3436063,0,0,5.3436063,344.11021,155.05117)" />
  <g
     id="g4467"
     transform="matrix(5.3436063,0,0,5.3436063,344.11021,155.05117)" />
  <g
     id="g4469"
     transform="matrix(5.3436063,0,0,5.3436063,344.11021,155.05117)" />
  <g
     id="g4471"
     transform="matrix(5.3436063,0,0,5.3436063,344.11021,155.05117)" />
  <g
     id="g4473"
     transform="matrix(5.3436063,0,0,5.3436063,344.11021,155.05117)" />
  <g
     id="g4475"
     transform="matrix(5.3436063,0,0,5.3436063,344.11021,155.05117)" />
</svg>
